<?xml version="1.0" encoding="iso-8859-1"?>
<!-- Uploaded to: SVG Repo, www.svgrepo.com, Generator: SVG Repo Mixer Tools -->
<!DOCTYPE svg PUBLIC "-//W3C//DTD SVG 1.1//EN" "http://www.w3.org/Graphics/SVG/1.1/DTD/svg11.dtd">
<svg height="800px" width="800px" version="1.1" id="Capa_1" xmlns="http://www.w3.org/2000/svg" xmlns:xlink="http://www.w3.org/1999/xlink" 
	 viewBox="0 0 47 47" xml:space="preserve">
<g>
	<path style="fill:#659C35;" d="M23.5,35c-0.256,0-0.512-0.098-0.707-0.293l-12-12c-0.391-0.391-0.391-1.023,0-1.414
		s1.023-0.391,1.414,0L23.5,32.586l11.293-11.293c0.391-0.391,1.023-0.391,1.414,0s0.391,1.023,0,1.414l-12,12
		C24.012,34.902,23.756,35,23.5,35z"/>
	<path style="fill:#659C35;" d="M23.5,35c-0.552,0-1-0.447-1-1V1c0-0.553,0.448-1,1-1s1,0.447,1,1v33C24.5,34.553,24.052,35,23.5,35
		z"/>
	<path style="fill:#659C35;" d="M45.5,43h-44c-0.552,0-1-0.447-1-1s0.448-1,1-1h44c0.553,0,1,0.447,1,1S46.053,43,45.5,43z"/>
	<path style="fill:#659C35;" d="M45.5,47h-44c-0.552,0-1-0.447-1-1s0.448-1,1-1h44c0.553,0,1,0.447,1,1S46.053,47,45.5,47z"/>
</g>
</svg>